<?xml version="1.0" encoding="UTF-8" standalone="no"?>
<!DOCTYPE svg PUBLIC "-//W3C//DTD SVG 1.1//EN" "http://www.w3.org/Graphics/SVG/1.1/DTD/svg11.dtd">
<svg xmlns="http://www.w3.org/2000/svg" version="1.1" viewBox="0.00 0.00 512.00 512.00">
<path fill="#000000" d="
  M 351.82 0.00
  L 358.80 0.00
  C 420.26 4.72 446.79 78.90 399.98 120.35
  A 0.45 0.44 49.3 0 0 399.94 120.96
  L 413.48 136.93
  A 0.82 0.81 -22.9 0 0 414.20 137.22
  C 443.72 134.06 506.42 126.11 512.00 170.77
  L 512.00 174.56
  C 508.94 203.20 475.79 226.95 453.36 241.01
  A 1.21 1.21 0.0 0 0 452.80 242.10
  Q 456.50 302.52 426.94 354.41
  Q 424.86 358.06 422.66 359.15
  C 418.22 361.36 412.02 357.76 412.01 352.69
  Q 412.00 350.46 414.11 346.73
  Q 439.14 302.54 438.22 251.37
  A 0.41 0.40 -15.6 0 0 437.61 251.03
  Q 408.86 267.96 378.80 282.30
  Q 286.89 326.12 189.07 354.36
  Q 184.73 355.61 182.37 355.03
  C 177.12 353.74 175.35 345.83 179.35 342.42
  Q 180.87 341.13 185.47 339.80
  Q 289.68 309.71 386.86 261.54
  C 408.28 250.92 512.87 197.70 494.94 164.61
  C 484.49 145.33 441.45 148.95 423.96 151.15
  A 0.46 0.46 0.0 0 0 423.62 151.83
  L 431.24 165.31
  Q 431.51 165.78 432.05 165.76
  C 445.57 165.21 458.08 164.47 471.56 166.50
  C 499.29 170.68 458.00 201.25 451.98 205.56
  C 420.09 228.37 383.79 247.58 347.33 264.11
  Q 266.91 300.57 182.10 325.20
  Q 139.91 337.46 96.51 344.28
  C 89.99 345.30 12.74 356.22 34.70 330.09
  C 43.16 320.02 53.38 311.58 63.99 303.83
  A 0.76 0.75 -24.5 0 0 64.28 303.07
  L 61.25 287.93
  Q 61.14 287.42 60.70 287.70
  Q 44.49 298.17 29.98 312.21
  C 16.96 324.80 4.95 346.91 28.76 357.73
  C 35.28 360.69 44.45 362.15 51.25 362.26
  C 84.37 362.77 118.30 356.61 150.20 349.01
  C 161.52 346.31 164.55 360.93 154.57 363.34
  Q 135.26 368.01 115.81 371.45
  A 0.43 0.43 0.0 0 0 115.56 372.15
  C 188.05 457.97 318.36 460.93 393.27 375.87
  Q 395.82 372.97 397.63 372.16
  C 405.42 368.66 411.12 378.18 405.56 384.55
  C 322.50 479.55 174.92 475.43 98.47 374.69
  A 1.24 1.23 -22.7 0 0 97.30 374.22
  C 68.30 378.75 4.66 385.49 0.00 341.44
  L 0.00 337.19
  C 2.99 308.40 36.84 285.14 58.88 270.75
  Q 59.31 270.47 59.27 269.95
  Q 58.33 257.88 59.05 245.91
  C 59.52 237.94 68.72 234.23 72.75 240.94
  C 74.97 244.63 73.86 253.84 73.92 258.49
  Q 74.37 295.61 89.14 329.52
  Q 89.35 329.99 89.86 329.98
  Q 91.84 329.95 92.52 329.84
  C 178.32 315.98 264.67 285.06 343.21 249.51
  Q 388.03 229.22 429.49 203.13
  A 1.24 1.23 -25.0 0 0 430.01 201.71
  Q 417.05 160.78 387.43 129.80
  A 1.08 1.07 54.6 0 0 386.18 129.58
  C 343.98 150.53 293.56 124.29 287.37 76.95
  A 0.77 0.77 0.0 0 0 286.73 76.30
  C 196.95 62.39 113.73 111.52 83.48 196.98
  Q 81.83 201.65 78.59 213.69
  C 75.50 225.16 61.59 220.62 63.79 211.31
  C 87.41 111.16 183.77 45.39 286.44 61.10
  A 0.73 0.73 0.0 0 0 287.28 60.48
  C 291.92 27.07 317.80 2.40 351.82 0.00
  Z
  M 408.72 68.50
  A 53.41 53.41 0.0 0 0 355.31 15.09
  A 53.41 53.41 0.0 0 0 301.90 68.50
  A 53.41 53.41 0.0 0 0 355.31 121.91
  A 53.41 53.41 0.0 0 0 408.72 68.50
  Z
  M 458.55 181.06
  A 0.64 0.64 0.0 0 0 458.14 179.93
  L 439.13 180.22
  A 0.64 0.64 0.0 0 0 438.54 181.08
  L 442.95 192.78
  A 0.64 0.64 0.0 0 0 443.95 193.05
  L 458.55 181.06
  Z
  M 72.90 332.06
  A 0.69 0.69 0.0 0 0 73.52 331.12
  L 69.07 319.53
  A 0.69 0.69 0.0 0 0 67.98 319.25
  L 53.64 331.41
  A 0.69 0.69 0.0 0 0 54.10 332.63
  L 72.90 332.06
  Z"
/>
<path fill="#000000" d="
  M 92.95 512.00
  L 89.69 512.00
  Q 65.56 510.00 52.78 491.83
  C 29.30 458.45 56.18 412.62 96.81 417.34
  C 129.58 421.15 148.74 456.61 133.50 486.12
  Q 121.41 509.51 92.95 512.00
  Z
  M 123.85 464.50
  A 32.43 32.43 0.0 0 0 91.42 432.07
  A 32.43 32.43 0.0 0 0 58.99 464.50
  A 32.43 32.43 0.0 0 0 91.42 496.93
  A 32.43 32.43 0.0 0 0 123.85 464.50
  Z"
/>
</svg>
